<svg xmlns="http://www.w3.org/2000/svg" width="983.3773" height="255.505" viewBox="0 0 983.3773 255.505">
  <g fill="#FFF" id="Layer_2" data-name="Layer 2">
    <g id="Layer_1-2" data-name="Layer 1">
      <g>
        <path d="M272.0414,119.1339H319.515v13.0644H258.2411Zm0,92.0024-13.8-13.8008V134.0381h13.8Zm48.9458,0H273.8817V198.0718h61.2739Zm.3682-138.0039h13.8V196.4156h-13.8Z" transform="translate(0 -30.1728)"/>
        <path d="M359.9916,119.1339h47.4736v13.0644H346.1913Zm0,92.0024-13.8-13.8008V134.0381h13.8Zm48.9458-36.6172H361.8319V161.4547h61.2739Zm0,36.6172H361.8319V198.0718h61.2739Zm.3681-92.0024,13.8,13.8v26.6807h-13.8Z" transform="translate(0 -30.1728)"/>
        <path d="M448.31,119.1339h48.9458v13.0644H434.141Zm-.3682,92.0024-13.8-13.0645V134.0381h13.8Zm50.7856,55.2021H447.9413l-13.064-13.0644h78.0186Zm-1.4716-55.2021H449.7816V198.0718h47.4737Zm1.84-92.0024,13.8008,13.8V251.4332H498.9115Z" transform="translate(0 -30.1728)"/>
        <path d="M537.7338,119.1339h47.4736v13.0644H523.933Zm0,92.0024L523.933,197.3355V134.0381h13.8008Zm48.9453-36.6172H539.5736V161.4547H600.848Zm0,36.6172H539.5736V198.0718H600.848Zm.3681-92.0024,13.8008,13.8v26.6807H587.0472Z" transform="translate(0 -30.1728)"/>
        <path d="M625.684,211.1363H611.8832V119.1339H625.684Zm15.6406-92.0024h32.0166v13.0644H627.5238Zm33.8564,0,13.8008,13.0644v78.938H675.181Z" transform="translate(0 -30.1728)"/>
        <path d="M719.7074,211.1363H705.9066V73.1324h13.8008Z" transform="translate(0 -30.1728)"/>
        <path d="M745.65,119.1339h47.4736v13.0644H731.849Zm0,33.121h47.4736v13.064H731.849Zm0,58.8814L731.849,197.3355V167.1588H745.65Zm48.9453,0H747.49V198.0718h61.2735Zm.3682-92.0024,13.8,13.8V196.232h-13.8Z" transform="translate(0 -30.1728)"/>
        <path d="M838.9369,196.232H825.1361v-123.1h13.8008Zm-13.0645,1.84h60.5381v13.0645H838.9369Zm75.4424-65.8735H840.96V119.1339h47.29ZM888.25,133.8546h13.8V198.44l-13.8,12.6963Z" transform="translate(0 -30.1728)"/>
        <path d="M926.8881,161.6392l-13.8008-5.7041V132.1983l13.8008-13.0644Zm-10.12,36.4326h50.9687v13.0645H916.768Zm62.93-65.8735h-50.97V119.1339h50.97Zm3.68,53.3608-54.6494-23.5517V148.023l54.6494,23.5518Zm-13.8-4.0478,13.8,5.8887v10.6718l-13.8,13.0645Z" transform="translate(0 -30.1728)"/>
      </g>
      <g>
        <path d="M141.0034,107.7446q3.257-2.9607,11.4185-12.4188-1.5141,8.2131-11.2052,19.0193-11.8017-.2979-20.7882-1.032a158.7434,158.7434,0,0,0,20.5749-5.5685m-53.79,25.02c1.7875-4.26,4.1788-7.1773,6.6628-8.6909,3.9875-2.43,8.2144-1.24,10.5684,3.8259-3.0586-2.6953-6.6575-2.91-10.5684-.7625a26.14,26.14,0,0,0-6.6628,5.6275m6.6628,51.5837q39.3467-17.525,54.9622-.9053a7.0261,7.0261,0,0,1-.6569,10.2351,43.8045,43.8045,0,0,1-6.56,4.4851q-9.1656-13.092-33.91,0,23.195-4.8475,32.4356,3.8336c-6.4911,22.3042-18.3189,41.394-32.7752,59.3263q2.3547-9.2745,1.208-14.3148c-1.9,3.51-9.1435,8.8564-12.418,10.5206,1.111-4.5838.5044-10.8118.8881-13.4-29.8857.03-28.3791,11.9061-49.3454-25.472q4.5392-2.4205,12.9744-6.4871a41.2278,41.2278,0,0,0-21.0832,8.109,94.7343,94.7343,0,0,1-7.0737-7.2859,4.35,4.35,0,0,1,1.97-6.9877Q70.89,194.3933,87.07,187.5479q3.4875-1.7209,6.8065-3.2M76.9041,116.294,12.6224,75.0119q4.6053-4.572,9.3681-8.6516a12.366,12.366,0,0,1,11.5229-2.6326c17.5948,4.6631,32.519,11.9748,48.7544,19.7359A80.7119,80.7119,0,0,0,78.5949,71.145q10.1208,7.05,12.7628,13.1078,2.7758-8.8126,1.6386-13.8839a110.7677,110.7677,0,0,1,9.6392,12.7072c16.5833-9.532,32.54-17.2373,49.5288-25.8995a12.5605,12.5605,0,0,1,15.13,2.7213,172.7676,172.7676,0,0,1,12.0782,14.6715L107.35,113.64q-4.704-3.5261-13.4735-15.71-.1551-.2155-.3114-.4337,0,2.4329,0,7.15A123.3457,123.3457,0,0,1,76.9041,116.294m-11.3207,1.2949q-11.9451-.3815-24.4745-1.0324-9.0769-11.105-11.7961-20.0514,9.57,11.5373,13.53,14.48,4.9686,1.663,22.741,6.6039m113.37,17.0252a10.0431,10.0431,0,0,0,9.4536-9.4879c.74-12.9571,1.28-30.2011-1.9133-43.3848a10.1446,10.1446,0,0,0,1.0053-13.1379,183.0437,183.0437,0,0,0-12.7821-15.5287,22.6856,22.6856,0,0,0-27.1329-4.88c-14.4375,7.3624-28.0488,13.5384-42.0293,21.5747q-2.4021-3.1329-5.017-6.0917a9.9764,9.9764,0,0,0-12.1361-2.2828,10.24,10.24,0,0,0-2.9461,2.2535q-.551-.3956-1.0983-.776a9.9655,9.9655,0,0,0-12.1584.4791,10.2423,10.2423,0,0,0-2.4676,2.9445l-2.3388-1.118c-.1163-.0554-.2158-.101-.3342-.1523A219.5546,219.5546,0,0,0,36.0963,53.9829a22.4613,22.4613,0,0,0-20.6646,4.72q-5.1246,4.39-9.9126,9.1546A10.0835,10.0835,0,0,0,6.8133,83.2534c-7.6079,20.3253-7.7206,44.5028-5.7081,65.7588a10.0283,10.0283,0,0,0,9.5105,9.1182c.0653.0034.1306.006.1956.0083a58.736,58.736,0,0,0,5.3445,9.1314,10.0081,10.0081,0,0,0,12.4468,3.26,10.31,10.31,0,0,0,1.7339-1.0224q.2256.1525.44.2949a10.0839,10.0839,0,0,0,9.3985.927,184.3073,184.3073,0,0,0-6.2791,24.2174c-.0453.2345-.0829.4689-.1125.7017q-1.1806.3765-2.3555.7513a14.4321,14.4321,0,0,0-6.5356,23.1833,104.6563,104.6563,0,0,0,7.8263,8.0677,10.0022,10.0022,0,0,0,9.7883,2.2937,121.4507,121.4507,0,0,0,9.7954,14.9118c3.8545,4.8333,8.289,8.773,14.402,10.3791,4.821,1.2669,9.5074.7619,14.3684.1688,1.8161-.2214,3.598-.4284,5.3715-.6053-.0254.1194-.052.2376-.0806.3546a10.0917,10.0917,0,0,0,12.77,12.0187,10.1369,10.1369,0,0,0,3.73,3.1684,9.9931,9.9931,0,0,0,12.3567-2.69c15.2615-18.9308,27.6791-39.1581,34.55-62.64a55.1374,55.1374,0,0,0,4.8171-3.5467,17.108,17.108,0,0,0,1.5988-24.9245q-.6069-.6456-1.23-1.2487c2.2869-6.5494.8694-12.2766-2.0937-17.5732a10.2991,10.2991,0,0,0,1.8755-1.6481,9.9912,9.9912,0,0,0,1.9454-10.2289q.252-.2787.487-.5808c.03-.0384.0593-.0767.0883-.1153a9.7381,9.7381,0,0,0,7.9435.1847,27.012,27.012,0,0,0,12.8434-10.7q.45.0121.909-.0155m-29.7408,4.4539a277.2993,277.2993,0,0,0-44.3781-18.7244q28.1791-2.05,39.9554-.1479,14.51-17.3,20.1984-32.5828a74.4081,74.4081,0,0,0,11.057-5.8981q3.99,13.1993,2.296,42.8362a94.8374,94.8374,0,0,0-3.0327-13.166c-.98,6.4045-3.176,20.3034-13.8593,24.5865q-12.5629-7.0525-23.4422-7.8142,7.5023,6.7971,11.2055,10.9107m-31.4064,3.87a192.6068,192.6068,0,0,0-11.7947-18.3553q29.5348,9.1944,41.2079,24.7691-7.7123-4.5291-13.4162-5.1605,12.7733,15.44,10.9843,31.5512c-11.7591-13.318-31.3633-4.9753-45.19-.2209V157.8288q13.7971-9.5748,18.2086-14.8912m-33.0715-2.0545c2.3027-5.0459,5.62-8.2814,9.1412-9.84,7.5846-3.3581,16.1148,1.0628,17.4884,11.9231q-4.9155-6.7371-9.1407-6.4506-2.2293,3.5385-1.1061,10.8c.1586.2385,1.7833-.1873,4.6444-1.6219l1.5663,1.3813L102.4,149.953a7.235,7.235,0,0,1-8.2135-.5335l-.3108-.2407-2.4341-1.8825V146.08a9.493,9.493,0,0,0,2.4341.9563V134.9208q-3.7879,1.963-6.0085,9.169Zm-27.9666,6.5886Q68.8728,129.98,87.5824,125.2085a47.1609,47.1609,0,0,0-8.8462,15.6287l15.14,14.7515,2.11,2.0562q0,9.6938,0,19.3877-1.0617.4383-2.11.87c-21.4615,8.8364-38.5121,15.5578-50.0823,18.96q8.2415-42.5874,28.3078-58.09a57.8214,57.8214,0,0,0-15.3333,8.6987m-45.6261.59q-3.7111-39.2028,5.6771-62.7341,3.9174,12.39,18.5772,37.301a14.2855,14.2855,0,0,0-7.3723,4.2022q33.0339-4.5217,51.8977-3.8336-25.7638,3.834-39.2915,13.0481,20.1379-6.7106,31.9931-7.5193a103.0029,103.0029,0,0,0-36.2689,32.8783C31.44,158.14,23.74,151.5621,22.7813,149.3975q-.6623,3.2424,1.5649,11.9936-7.0921-9.88-9.96-25.4927a89.7677,89.7677,0,0,0-3.2443,12.1638" transform="translate(0 -30.1728)" fill-rule="evenodd"/>
        <path d="M210.935,274.9246a6.01,6.01,0,0,1-5.4133,2.4367l-77.5338-6.6558a6.0954,6.0954,0,0,1-4.6774-9.2554l37.2675-60.8828,2.7561-32.1061,24.7843,2.1276-2.7562,32.1061,26.3461,66.3436A6.01,6.01,0,0,1,210.935,274.9246Zm8.48-8.9463-25.6234-64.5246L196.38,171.298a5.5957,5.5957,0,0,0,.9571-11.15v-.0017l-41.307-3.5459,0,.0016a5.5957,5.5957,0,0,0-.9571,11.15l-2.5887,30.1558-36.2455,59.2135a14.3871,14.3871,0,0,0,11.04,21.8456l77.5338,6.6558A14.3872,14.3872,0,0,0,219.4145,265.9783Z" transform="translate(0 -30.1728)"/>
        <path d="M181.712,244.0048a2.5912,2.5912,0,1,1,2.8033-2.36A2.5911,2.5911,0,0,1,181.712,244.0048Zm-8.5991,12.5774a4.1459,4.1459,0,1,1,4.4853-3.7761A4.1458,4.1458,0,0,1,173.1129,256.5822Zm-8.0819-23.06a5.1824,5.1824,0,1,1,4.72,5.6067A5.1824,5.1824,0,0,1,165.031,233.5223Zm26.9659-8.5041-41.7609-3.5849-25.1575,41.099a4.0226,4.0226,0,0,0,3.0867,6.1078l77.5338,6.6558a4.0225,4.0225,0,0,0,4.0826-5.4924Z" transform="translate(0 -30.1728)"/>
        <path d="M247.7349,125.05a10.98,10.98,0,1,1-8.3307-13.1039A10.9791,10.9791,0,0,1,247.7349,125.05Z" transform="translate(0 -30.1728)" fill-rule="evenodd"/>
        <path d="M185.3737,150.6316a5.1782,5.1782,0,1,1-3.9287-6.1787A5.178,5.178,0,0,1,185.3737,150.6316Z" transform="translate(0 -30.1728)" fill-rule="evenodd"/>
        <path d="M207.7976,107.627a5.1782,5.1782,0,1,1-3.9287-6.1787A5.178,5.178,0,0,1,207.7976,107.627Z" transform="translate(0 -30.1728)" fill-rule="evenodd"/>
        <path d="M205.2683,136.42a2.5889,2.5889,0,1,1-1.9643-3.0891A2.5889,2.5889,0,0,1,205.2683,136.42Z" transform="translate(0 -30.1728)" fill-rule="evenodd"/>
        <path d="M215.9531,63.0557a2.5889,2.5889,0,1,1-1.9643-3.0891A2.5889,2.5889,0,0,1,215.9531,63.0557Z" transform="translate(0 -30.1728)" fill-rule="evenodd"/>
        <path d="M192.3907,38.7705a7.0612,7.0612,0,1,1-5.3576-8.4274A7.0616,7.0616,0,0,1,192.3907,38.7705Z" transform="translate(0 -30.1728)" fill-rule="evenodd"/>
        <path d="M238.6292,94.8272a8.2952,8.2952,0,1,1-6.2945-9.9A8.2951,8.2951,0,0,1,238.6292,94.8272Z" transform="translate(0 -30.1728)" fill-rule="evenodd"/>
      </g>
    </g>
  </g>
</svg>
